<svg xmlns="http://www.w3.org/2000/svg" viewBox="0 0 1614.74 1643.62"><defs><style>.cls-1{isolation:isolate;}.cls-2{fill:#f4a640;}.cls-3{fill:#adcfd8;}.cls-13,.cls-4{fill:#55769f;}.cls-5,.cls-9{fill:#daeef7;}.cls-6{fill:#feb546;}.cls-7{fill:#ff5b7e;}.cls-8{fill:#e03268;}.cls-22,.cls-23,.cls-9{mix-blend-mode:multiply;}.cls-10{fill:#07085b;}.cls-11{fill:#02ccc0;}.cls-12{fill:#06bfad;}.cls-13{opacity:0.5;}.cls-14{fill:#c4dfe8;}.cls-15{fill:#ffc0bb;}.cls-16{fill:#fc8d84;opacity:0.6;}.cls-17{fill:#050645;}.cls-18{fill:#fff;}.cls-19{fill:#f99893;}.cls-20{fill:#333;}.cls-21{fill:#6f747a;}.cls-22{fill:#cdd6e0;}.cls-23{fill:#d9d9d9;}</style></defs><g class="cls-1"><g id="Layer_1" data-name="Layer 1"><path class="cls-2" d="M1019.53,1505.93l206.25,82.83L1481.1,953l-174.35-70A34.38,34.38,0,0,0,1262,902.11Z" transform="translate(-192.63 -178.19)"/><rect class="cls-3" x="1041.4" y="957.69" width="401.07" height="563.91" transform="translate(2055.79 2498.87) rotate(-169.95)"/><rect class="cls-4" x="1191.72" y="1017.14" width="179.1" height="4.02" transform="translate(2172.35 2068.12) rotate(-169.95)"/><rect class="cls-4" x="1155.88" y="1007.1" width="254.35" height="4.02" transform="translate(2177.63 2048.5) rotate(-169.95)"/><rect class="cls-4" x="1119.61" y="1058.71" width="308.59" height="4.02" transform="translate(2150.47 2149.34) rotate(-169.95)"/><rect class="cls-4" x="1116.23" y="1077.76" width="308.59" height="4.02" transform="translate(2140.44 2186.54) rotate(-169.95)"/><rect class="cls-4" x="1109.48" y="1115.84" width="308.59" height="4.02" transform="translate(2120.39 2260.95) rotate(-169.95)"/><rect class="cls-4" x="1106.11" y="1134.88" width="308.59" height="4.02" transform="matrix(-0.98, -0.17, 0.17, -0.98, 2110.37, 2298.15)"/><rect class="cls-4" x="1102.73" y="1153.92" width="308.59" height="4.02" transform="translate(2100.35 2335.35) rotate(-169.95)"/><rect class="cls-4" x="1087.88" y="1237.68" width="308.59" height="4.02" transform="translate(2056.26 2498.99) rotate(-169.95)"/><rect class="cls-4" x="1084.38" y="1257.43" width="308.59" height="4.02" transform="translate(2045.87 2537.57) rotate(-169.95)"/><rect class="cls-4" x="1080.88" y="1277.17" width="308.59" height="4.02" transform="translate(2035.48 2576.14) rotate(-169.95)"/><rect class="cls-4" x="1077.38" y="1296.92" width="308.59" height="4.02" transform="translate(2025.08 2614.72) rotate(-169.95)"/><rect class="cls-4" x="1073.88" y="1316.66" width="308.59" height="4.02" transform="translate(2014.68 2653.3) rotate(-169.95)"/><rect class="cls-4" x="1070.38" y="1336.41" width="308.59" height="4.02" transform="translate(2004.28 2691.88) rotate(-169.95)"/><rect class="cls-4" x="1066.88" y="1356.16" width="308.59" height="4.02" transform="translate(1993.89 2730.46) rotate(-169.95)"/><rect class="cls-5" x="1072.25" y="954.9" width="401.07" height="563.91" transform="translate(1996.24 2578.74) rotate(-165.26)"/><rect class="cls-4" x="1240.47" y="1018.31" width="179.1" height="4.02" transform="translate(2163.94 2167.35) rotate(-165.26)"/><rect class="cls-4" x="1205.44" y="1008.45" width="254.36" height="4.02" transform="translate(2171.56 2148.62) rotate(-165.26)"/><rect class="cls-4" x="1164.98" y="1059.14" width="308.59" height="4.02" transform="translate(2132.41 2244.93) rotate(-165.26)"/><rect class="cls-4" x="1160.06" y="1077.84" width="308.59" height="4.02" transform="translate(2117.97 2280.47) rotate(-165.26)"/><rect class="cls-4" x="1150.22" y="1115.25" width="308.59" height="4.02" transform="translate(2089.09 2351.54) rotate(-165.26)"/><rect class="cls-4" x="1145.29" y="1133.95" width="308.59" height="4.02" transform="translate(2074.65 2387.08) rotate(-165.26)"/><rect class="cls-4" x="1140.37" y="1152.65" width="308.59" height="4.02" transform="translate(2060.21 2422.61) rotate(-165.26)"/><rect class="cls-4" x="1118.72" y="1234.91" width="308.59" height="4.02" transform="translate(1996.68 2578.92) rotate(-165.26)"/><rect class="cls-4" x="1113.62" y="1254.31" width="308.59" height="4.02" transform="translate(1981.71 2615.77) rotate(-165.26)"/><rect class="cls-4" x="1108.52" y="1273.7" width="308.59" height="4.02" transform="translate(1966.74 2652.61) rotate(-165.26)"/><rect class="cls-4" x="1103.41" y="1293.09" width="308.59" height="4.02" transform="translate(1951.76 2689.46) rotate(-165.26)"/><rect class="cls-4" x="1098.31" y="1312.49" width="308.59" height="4.02" transform="translate(1936.78 2726.31) rotate(-165.26)"/><rect class="cls-4" x="1093.2" y="1331.88" width="308.59" height="4.02" transform="translate(1921.8 2763.17) rotate(-165.26)"/><rect class="cls-4" x="1088.1" y="1351.27" width="308.59" height="4.02" transform="translate(1906.84 2800.01) rotate(-165.26)"/><path class="cls-6" d="M1097.79,1537.36,1513,1704.12l242.19-603L1406.28,885.84a37.14,37.14,0,0,0-54,17.77Z" transform="translate(-192.63 -178.19)"/><path class="cls-7" d="M1597.56,1474.07l75.23-22c13.25-54.75,21.2-101.38,21.2-101.38-90.77,3.66-160.63,31.44-214.36,70.94L1468.51,1511l-24-60c-126.85,121-141.7,307.73-141.7,307.73s255.33-99.9,304-141.07c18.79-15.89,36.07-59.33,50.2-106.67C1631.6,1497.36,1597.56,1474.07,1597.56,1474.07Z" transform="translate(-192.63 -178.19)"/><path class="cls-8" d="M1694,1350.65S1395.2,1585,1302.81,1758.78c0,0,255.33-99.9,304-141.07,18.79-15.89,36.07-59.33,50.2-106.67-25.4-13.68-59.44-37-59.44-37l75.23-22C1686,1397.28,1694,1350.65,1694,1350.65Z" transform="translate(-192.63 -178.19)"/><path class="cls-7" d="M1745.29,1580.69c-53-15.26-102.94-17.54-148.94-11.31-8.59,19.73-19.36,43.12-19.36,43.12l-12-37.46c-172.42,38.8-282.34,191.48-282.34,191.48,115.63,35.2,204.45,29.34,271.86,5,.45-14.39.82-35.76.82-35.76l20.51,27.14a308.57,308.57,0,0,0,79.7-51.95c-10.77-14-22.5-30.25-22.5-30.25l42.4,10.82C1726.62,1637.05,1745.29,1580.69,1745.29,1580.69Z" transform="translate(-192.63 -178.19)"/><path class="cls-8" d="M1554.46,1771.47c.45-14.39.82-35.76.82-35.76l20.51,27.14a308.57,308.57,0,0,0,79.7-51.95c-10.77-14-22.5-30.25-22.5-30.25l42.4,10.82c51.23-54.42,69.9-110.78,69.9-110.78C1540.6,1612,1282.6,1766.52,1282.6,1766.52,1398.23,1801.72,1487.05,1795.86,1554.46,1771.47Z" transform="translate(-192.63 -178.19)"/><path class="cls-8" d="M440.79,1123.35h-28.4a29.68,29.68,0,0,1,16.78-5.08h711.36c37.21,0,67.38,26.74,67.38,59.73v38c0,33-30.17,59.73-67.38,59.73l-703.4-.21Z" transform="translate(-192.63 -178.19)"/><path class="cls-6" d="M1148.24,1216v-38c0-33-30.17-59.73-67.39-59.73h15.28c37.22,0,67.39,26.74,67.39,59.73v38c0,33-30.17,59.73-67.39,59.73h-15.07C1118.18,1275.58,1148.24,1248.88,1148.24,1216Z" transform="translate(-192.63 -178.19)"/><path class="cls-6" d="M981.64,1216v-38c0-33-30.17-59.73-67.39-59.73h15.28c37.22,0,67.39,26.74,67.39,59.73v38c0,33-30.17,59.73-67.39,59.73H914.46C951.58,1275.58,981.64,1248.88,981.64,1216Z" transform="translate(-192.63 -178.19)"/><path class="cls-7" d="M844.64,1118.41c35.59,0,64.44,25.58,64.44,57.13v42.88c0,31.54-28.85,57.12-64.44,57.12H401.8V1266h1.83l112.58-9.45L539,1177.37s-43.92-43.73-46.78-44.86-88.56-4.54-88.56-4.54l-1.83,0v-9.54Z" transform="translate(-192.63 -178.19)"/><path class="cls-5" d="M430.53,1196.69c0-46.26-27-68.69-27-68.69h432c32.69,0,59.19,23.49,59.19,52.47v33c0,29-26.5,52.47-59.19,52.47h-432S430.53,1255,430.53,1196.69Z" transform="translate(-192.63 -178.19)"/><path class="cls-9" d="M894.76,1180.47v33a46.87,46.87,0,0,1-1.72,12.58c-14.57-31.6-42.5-62-95.66-71.82C673.27,1131.39,403.55,1128,403.55,1128h432C868.26,1128,894.76,1151.49,894.76,1180.47Z" transform="translate(-192.63 -178.19)"/><path class="cls-10" d="M452.5,1438H420.36a31.38,31.38,0,0,1,19-6.36h805.11c42.12,0,76.27,33.48,76.27,74.77v47.5c0,41.29-34.15,74.77-76.27,74.77l-796.11-.27Z" transform="translate(-192.63 -178.19)"/><path class="cls-4" d="M909.58,1431.8c40.28,0,72.94,32,72.94,71.51V1557c0,39.49-32.66,71.5-72.94,71.5H408.38v-12h2.07l127.42-11.83,25.75-99.05s-49.71-54.73-52.95-56.14-100.22-5.7-100.22-5.7l-2.07,0V1431.8Z" transform="translate(-192.63 -178.19)"/><path class="cls-5" d="M440.88,1529.79c0-57.91-30.52-86-30.52-86h489c37,0,67,29.4,67,65.67v41.32c0,36.27-30,65.68-67,65.68h-489S440.88,1602.71,440.88,1529.79Z" transform="translate(-192.63 -178.19)"/><path class="cls-9" d="M966.31,1509.48v41.32a64.47,64.47,0,0,1-1.95,15.75c-16.49-39.55-48.1-77.65-108.27-89.9-140.47-28.61-445.73-32.84-445.73-32.84h489C936.32,1443.81,966.31,1473.21,966.31,1509.48Z" transform="translate(-192.63 -178.19)"/><path class="cls-11" d="M1347.27,1280.32h32.15a37.08,37.08,0,0,0-19-5H555c-42.14,0-76.3,26.56-76.3,59.33v37.68c0,32.77,34.16,59.33,76.3,59.33l796.42-.2Z" transform="translate(-192.63 -178.19)"/><path class="cls-12" d="M890,1275.42c-40.29,0-73,25.4-73,56.74v42.59c0,31.33,32.67,56.73,73,56.73h501.4V1422h-2.07l-127.46-9.39L1236.11,1334s49.73-43.43,53-44.55,100.26-4.52,100.26-4.52h2.07v-9.48Z" transform="translate(-192.63 -178.19)"/><path class="cls-5" d="M1358.89,1353.17c0-46,30.54-68.22,30.54-68.22H900.28c-37,0-67,23.33-67,52.11v32.78c0,28.78,30,52.12,67,52.12h489.15S1358.89,1411,1358.89,1353.17Z" transform="translate(-192.63 -178.19)"/><path class="cls-9" d="M833.26,1337.06v32.78a41.21,41.21,0,0,0,2,12.5c16.49-31.38,48.11-61.62,108.3-71.34,140.53-22.69,445.91-26,445.91-26H900.28C863.27,1285,833.26,1308.28,833.26,1337.06Z" transform="translate(-192.63 -178.19)"/><path class="cls-13" d="M626.25,1372.29v-37.68c0-32.77,34.16-59.33,76.3-59.33H626.06c-42.13,0-76.3,26.56-76.3,59.33v37.68c0,32.77,34.17,59.33,76.3,59.33l75.48,0C659.87,1431.18,626.25,1404.8,626.25,1372.29Z" transform="translate(-192.63 -178.19)"/><path class="cls-6" d="M1400.33,1634.7h40.3a50.76,50.76,0,0,0-23.82-5.64H407.07c-52.83,0-95.65,29.68-95.65,66.29v42.11c0,36.6,42.82,66.28,95.65,66.28l998.45-.23Z" transform="translate(-192.63 -178.19)"/><path class="cls-2" d="M827.07,1629.22c-50.52,0-91.47,28.38-91.47,63.39v47.58c0,35,40.95,63.4,91.47,63.4h628.59v-10.65h-2.59l-159.8-10.48-32.3-87.81s62.34-48.53,66.4-49.78,125.7-5,125.7-5l2.59,0v-10.58Z" transform="translate(-192.63 -178.19)"/><path class="cls-5" d="M1414.9,1716.09c0-51.34,38.28-76.23,38.28-76.23H840c-46.41,0-84,26.07-84,58.23v36.63c0,32.15,37.62,58.22,84,58.22h613.23S1414.9,1780.73,1414.9,1716.09Z" transform="translate(-192.63 -178.19)"/><path class="cls-9" d="M755.92,1698.09v36.63a41.52,41.52,0,0,0,2.46,14c20.68-35.07,60.32-68.84,135.78-79.71,176.17-25.35,559-29.11,559-29.11H840C793.54,1639.86,755.92,1665.93,755.92,1698.09Z" transform="translate(-192.63 -178.19)"/><path class="cls-14" d="M200.46,1802.54H1664.83a7.83,7.83,0,0,1,7.83,7.83V1814a7.83,7.83,0,0,1-7.83,7.83H200.46a7.84,7.84,0,0,1-7.84-7.84v-3.6a7.84,7.84,0,0,1,7.84-7.84Z" transform="translate(1672.66 3446.16) rotate(180)"/><polygon class="cls-2" points="1489.01 989.47 1206.31 827.77 1168.1 903.46 1457.37 1056.5 1489.01 989.47"/><path class="cls-11" d="M1449.32,583.23s2.23,22,19.58,23.51c-17.35,1.52-19.58,23.51-19.58,23.51s-2.23-22-19.58-23.51C1447.09,605.22,1449.32,583.23,1449.32,583.23Z" transform="translate(-192.63 -178.19)"/><path class="cls-7" d="M1755.21,1224.17s3.34,33,29.37,35.27c-26,2.28-29.37,35.26-29.37,35.26s-3.35-33-29.37-35.26C1751.86,1257.16,1755.21,1224.17,1755.21,1224.17Z" transform="translate(-192.63 -178.19)"/><path class="cls-6" d="M1673.6,403.44s3,29.28,26.08,31.31c-23.11,2-26.08,31.31-26.08,31.31s-3-29.29-26.08-31.31C1670.63,432.72,1673.6,403.44,1673.6,403.44Z" transform="translate(-192.63 -178.19)"/><path class="cls-6" d="M298,1354s2,19.71,17.55,21.07C300,1376.47,298,1396.18,298,1396.18s-2-19.71-17.55-21.08C296,1373.74,298,1354,298,1354Z" transform="translate(-192.63 -178.19)"/><path class="cls-7" d="M1569.75,800.11s2,19.66,17.51,21c-15.51,1.36-17.51,21-17.51,21s-2-19.67-17.51-21C1567.76,819.77,1569.75,800.11,1569.75,800.11Z" transform="translate(-192.63 -178.19)"/><path class="cls-7" d="M1299.59,283.94s2,19.66,17.51,21c-15.52,1.36-17.51,21-17.51,21s-2-19.67-17.51-21C1297.6,303.6,1299.59,283.94,1299.59,283.94Z" transform="translate(-192.63 -178.19)"/><path class="cls-7" d="M486.1,534.26S488.71,560,509,561.77c-20.31,1.78-22.92,27.52-22.92,27.52s-2.61-25.74-22.91-27.52C483.49,560,486.1,534.26,486.1,534.26Z" transform="translate(-192.63 -178.19)"/><path class="cls-7" d="M311.42,980s3.82,37.7,33.57,40.31c-29.75,2.61-33.57,40.31-33.57,40.31s-3.83-37.7-33.58-40.31C307.59,1017.71,311.42,980,311.42,980Z" transform="translate(-192.63 -178.19)"/><path class="cls-7" d="M1221.17,637.47s3,29.28,26.08,31.31c-23.11,2-26.08,31.31-26.08,31.31s-3-29.28-26.08-31.31C1218.2,666.75,1221.17,637.47,1221.17,637.47Z" transform="translate(-192.63 -178.19)"/><path class="cls-11" d="M1781.29,953.62s3,29.29,26.08,31.31c-23.11,2-26.08,31.31-26.08,31.31s-3-29.28-26.08-31.31C1778.32,982.91,1781.29,953.62,1781.29,953.62Z" transform="translate(-192.63 -178.19)"/><path class="cls-11" d="M330,352.68s2.11,20.86,18.57,22.3C332.11,376.43,330,397.29,330,397.29s-2.12-20.86-18.58-22.31C327.88,373.54,330,352.68,330,352.68Z" transform="translate(-192.63 -178.19)"/><path class="cls-11" d="M549.77,868.39s3.39,33.41,29.75,35.72c-26.36,2.31-29.75,35.72-29.75,35.72s-3.39-33.41-29.76-35.72C546.38,901.8,549.77,868.39,549.77,868.39Z" transform="translate(-192.63 -178.19)"/><path class="cls-6" d="M257.26,650.84s2.31,26.51,20.32,28.34c-18,1.84-20.32,28.34-20.32,28.34s-2.32-26.5-20.32-28.34C254.94,677.35,257.26,650.84,257.26,650.84Z" transform="translate(-192.63 -178.19)"/><path class="cls-6" d="M688.34,227.09s2.32,26.59,20.37,28.43c-18.05,1.84-20.37,28.42-20.37,28.42S686,257.36,668,255.52C686,253.68,688.34,227.09,688.34,227.09Z" transform="translate(-192.63 -178.19)"/><path class="cls-9" d="M973.93,760.6l45.61,3.66-14.72,36.9-23-1.85-9.59,30.76c-2.34-1.06-4.06-1.87-4.4-2.11-.7-.46-3.25-15.72-5.48-30.14Z" transform="translate(-192.63 -178.19)"/><path class="cls-8" d="M1000,1099.92V1116a2.4,2.4,0,0,0,2.4,2.41h37.54a2.72,2.72,0,0,0,1.46-5l-21.06-13.47S1012,1106,1000,1099.92Z" transform="translate(-192.63 -178.19)"/><path class="cls-15" d="M926.26,418.34a.73.73,0,0,1-1-.84c.94-4.46,3.8-18.53,2.72-19-1.28-.59-4.15,11.92-5.46,12.07s1.8-12,.33-12.39-3.94,10.75-4.63,10.79.54-10.9-.19-11.66-3.44,10.76-4.25,11.05-1.58-8.29-2.33-8.31-1.23-.16-5,19.64c0,0-.22,7.26-1.51,9l2.86,5.83,8.86.3s19.24-17.41,19.08-18.47S934.71,415,926.26,418.34Z" transform="translate(-192.63 -178.19)"/><path class="cls-15" d="M1017.42,422.72a.74.74,0,0,0,1.27-.28c1.2-4.41,5.06-18.24,6.25-18.19,1.42.06-1.73,12.5-.64,13.23s3.86-11.48,5.36-11.17-1.39,11.36-.8,11.71,4.49-9.95,5.48-10.29-1.84,11.14-1.25,11.77,5.19-6.66,5.86-6.33,1.17.42-4.47,19.78c0,0-3.1,6.56-2.74,8.66l-5.2,3.89-8-3.78s-9.19-24.26-8.56-25.13S1011.41,415.93,1017.42,422.72Z" transform="translate(-192.63 -178.19)"/><polygon class="cls-15" points="754.41 403.09 754.55 436.94 721.67 431.87 727.15 393.8 754.41 403.09"/><path class="cls-16" d="M917.25,589.51,919.78,572l27.29,12.49,0,6.69C940.51,592.77,928.2,594.21,917.25,589.51Z" transform="translate(-192.63 -178.19)"/><path class="cls-8" d="M887.62,1098.14v17.63a2.64,2.64,0,0,1-2.63,2.64h-41.3a3,3,0,0,1-1.61-5.51l23.17-14.76S874.34,1104.78,887.62,1098.14Z" transform="translate(-192.63 -178.19)"/><path class="cls-10" d="M849.91,798.5c.08-3.78-9.74,7.35-9.55,4.33,3.85-62.62,126.21-10.11,126.21-10.11l29.87,21.92,33.72,290.24s-18.3,5.3-30.35,1L925.14,857.13,916,853.6S875.12,825.1,849.91,798.5Z" transform="translate(-192.63 -178.19)"/><path class="cls-12" d="M840.22,805.39c0,.73-.07,1.48-.1,2.25C840.15,806.87,840.18,806.12,840.22,805.39Z" transform="translate(-192.63 -178.19)"/><path class="cls-12" d="M840.12,807.68c0,.78-.06,1.59-.08,2.41C840.06,809.27,840.09,808.46,840.12,807.68Z" transform="translate(-192.63 -178.19)"/><path class="cls-12" d="M840,810.41c0,.86,0,1.73-.07,2.62C840,812.14,840,811.27,840,810.41Z" transform="translate(-192.63 -178.19)"/><path class="cls-12" d="M840.36,802.83c0,.68-.08,1.39-.12,2.1C840.28,804.22,840.32,803.51,840.36,802.83Z" transform="translate(-192.63 -178.19)"/><path class="cls-10" d="M840.37,788.61c25.21,26.6,75.59,65,75.59,65l9.18,3.53L916,853.6l-28.39,251.28s-20.23,3.86-31.8-2.41C855.77,1102.47,838.73,863.28,840.37,788.61Z" transform="translate(-192.63 -178.19)"/><path class="cls-12" d="M1030.16,1104.88a78.32,78.32,0,0,1-16.71,2.63,78.32,78.32,0,0,0,16.71-2.63Z" transform="translate(-192.63 -178.19)"/><path class="cls-12" d="M1003.34,1106.82c.82.17,1.65.3,2.48.41C1005,1107.12,1004.16,1107,1003.34,1106.82Z" transform="translate(-192.63 -178.19)"/><path class="cls-12" d="M1013.45,1107.51a50.26,50.26,0,0,1-6.37-.14A50.26,50.26,0,0,0,1013.45,1107.51Z" transform="translate(-192.63 -178.19)"/><path class="cls-17" d="M996.44,814.64l4.81,41.42c-12.73,4.93-43.77,10.2-67.16-41-7.38-16.14-9.27-27.75-7.91-36.09a331.63,331.63,0,0,1,40.39,13.71Z" transform="translate(-192.63 -178.19)"/><path class="cls-5" d="M884.17,645.56c1.41,0,22.61-48,22.61-48,18.13,12.72,42.73,3.89,42.73,3.89s99,181.19,32.62,209.45-129-6.12-129-6.12S839,768,839,766.59,882.76,645.56,884.17,645.56Z" transform="translate(-192.63 -178.19)"/><path class="cls-4" d="M1013.21,442.11s4.29,86-3.77,101.72c-26.73,52.28-59.93,57.58-59.93,57.58s-11.42,182.84-2,226.64c0,0,31.32,9.65,77.47-12,0,0-35.32-141.75-33.44-159.65,0,0,56.52-50.39,58.4-109.73s-13.66-112.08-13.66-112.08Z" transform="translate(-192.63 -178.19)"/><path class="cls-4" d="M860.86,821.46s3.53-68.06,19.07-132.58,26.85-91.36,26.85-91.36c-20.84-23-17.38-43.71-15.55-70.64,2.12-31.08,32.5-93.25,32.5-93.25l-20.49-13.42c-98.19,118-43.79,211.93-43.79,211.93s-36.74,130-41.68,169.54A299.28,299.28,0,0,0,860.86,821.46Z" transform="translate(-192.63 -178.19)"/><path class="cls-18" d="M990.59,656.19a21.54,21.54,0,0,1-4-3.75c-4.16-5-6.32-10.68-7.81-17,.9,2.7,3.32,10.55,8.41,16.51a20.08,20.08,0,0,0,4.58,4.2l-.28.25,0,.37c-1.3.27-3.6.35-7.46-1.75a33.64,33.64,0,0,1-6.28-4.51,46,46,0,0,0,6.51,4.06A14.09,14.09,0,0,0,990.59,656.19Z" transform="translate(-192.63 -178.19)"/><path class="cls-18" d="M860.2,631.7a21.59,21.59,0,0,0,4.48-4.13c4.17-4.88,6.45-10.67,8.41-16.51-1.49,6.29-3.63,12-7.82,17a21.6,21.6,0,0,1-3.94,3.75,9,9,0,0,0,2.76-.32,18.49,18.49,0,0,0,3.55-1.31,44.77,44.77,0,0,0,6.51-4.06,34.17,34.17,0,0,1-6.28,4.51,18.48,18.48,0,0,1-3.61,1.51,7.66,7.66,0,0,1-4,.21l-.76-.21Z" transform="translate(-192.63 -178.19)"/><polygon class="cls-10" points="707.24 334.01 705.25 357.24 708.92 359.55 715.71 331.26 707.24 334.01"/><path class="cls-19" d="M904.81,533c1,5.26-1.59,10.18-5.8,11s-8.44-2.8-9.45-8.06,1.59-10.19,5.8-11S903.8,527.77,904.81,533Z" transform="translate(-192.63 -178.19)"/><path class="cls-15" d="M898.78,554.51a76.93,76.93,0,0,1-.32-19.52c.12-1.26.18-2.54.21-3.81a41.45,41.45,0,1,1,82.08,9.12,8.94,8.94,0,0,1,8,1c4.4,3.12,4.8,10.1.89,15.59s-10.62,7.41-15,4.29a8.2,8.2,0,0,1-1.59-1.52c-6,19.5-25.39,31.59-44.87,27.36C913.4,583.77,901.19,571.5,898.78,554.51Z" transform="translate(-192.63 -178.19)"/><path class="cls-20" d="M943.73,535.93a3.62,3.62,0,1,0,3.29-2.26A3.62,3.62,0,0,0,943.73,535.93Z" transform="translate(-192.63 -178.19)"/><path class="cls-20" d="M912.94,531.32a3.62,3.62,0,1,0,3.29-2.26A3.62,3.62,0,0,0,912.94,531.32Z" transform="translate(-192.63 -178.19)"/><path class="cls-19" d="M938.94,561.23a23.62,23.62,0,0,1-5.81,2,18.45,18.45,0,0,1-6.06.23,15.7,15.7,0,0,1-5.69-2,21.79,21.79,0,0,1-4.73-3.91,16.84,16.84,0,0,0,4.43,4.38,14.44,14.44,0,0,0,5.89,2.23,16.39,16.39,0,0,0,6.28-.41A17.79,17.79,0,0,0,938.94,561.23Z" transform="translate(-192.63 -178.19)"/><path class="cls-10" d="M940.81,528.58a33.51,33.51,0,0,1,5.41-.57,18.08,18.08,0,0,1,5,.59,16.77,16.77,0,0,1,4.63,2c2,1.13,3.39,2.5,4.43,3.18a11.86,11.86,0,0,0-3.18-4.81,11.74,11.74,0,0,0-5.21-2.91A12.24,12.24,0,0,0,946,526,11.32,11.32,0,0,0,940.81,528.58Z" transform="translate(-192.63 -178.19)"/><path class="cls-10" d="M926.42,526.22a11.31,11.31,0,0,0-4-4.13,12.36,12.36,0,0,0-5.68-1.82,11.72,11.72,0,0,0-5.86,1.09,11.9,11.9,0,0,0-4.55,3.54,48.77,48.77,0,0,1,5.21-1.59,16.5,16.5,0,0,1,5-.42,17.81,17.81,0,0,1,5,1.05A32.27,32.27,0,0,1,926.42,526.22Z" transform="translate(-192.63 -178.19)"/><path class="cls-19" d="M932.7,530.78a51.85,51.85,0,0,0-4.72,5.11,50.1,50.1,0,0,0-4.06,5.69,13.77,13.77,0,0,0-1.77,4.19c-.12.76-.06,1.5,1.21,2.75a16.23,16.23,0,0,0,2.73,2.26,22.2,22.2,0,0,0,3,1.74,38.89,38.89,0,0,1-4.93-4.73,7.08,7.08,0,0,1-.79-1.24,2.63,2.63,0,0,1,.24-1.29,18.79,18.79,0,0,1,1.51-3c1.14-1.95,2.44-3.84,3.72-5.75S931.45,532.74,932.7,530.78Z" transform="translate(-192.63 -178.19)"/><path class="cls-10" d="M904.19,487.4s-12.2-2.35,2.83-9.72,51.88-11.66,71.14,4.84c0,0,6.48-8.31,12.31-4.66s-6.07,7.69-6.07,7.69,8.14,1.57,9.71,6.09c1.16,3.34-3.82,2.35-6.49,1.6,4.42,1.83,17.42,14.1.54,47.64-3-1.4-22.32-29-22.32-29S927,524.68,934.08,514.1c0,0-45.27,11.38-34.29-9.14C899.79,505,883.1,502.45,904.19,487.4Z" transform="translate(-192.63 -178.19)"/><path class="cls-10" d="M988.16,540.88a8,8,0,0,0-7.41-.58C976.27,542,973.43,552,973.43,552s-14.66,12-7.51-40.31c7-51.4,16.74,8.55,16.74,8.55Z" transform="translate(-192.63 -178.19)"/><path class="cls-6" d="M1009.54,380l-67-4.78a6.15,6.15,0,0,1-5.7-6.58h0a6.15,6.15,0,0,1,6.57-5.7l67,4.77a6.16,6.16,0,0,1,5.7,6.58h0A6.17,6.17,0,0,1,1009.54,380Z" transform="translate(-192.63 -178.19)"/><polygon class="cls-6" points="797.61 0 821.03 57.41 881.61 70.67 834.24 110.69 840.35 172.39 787.66 139.71 730.86 164.59 745.66 104.38 704.44 58.05 766.28 53.52 797.61 0"/><polygon class="cls-2" points="797.61 0 791.61 84.25 821.03 57.41 797.61 0"/><polygon class="cls-2" points="881.61 70.67 791.61 84.25 834.24 110.69 881.61 70.67"/><polygon class="cls-2" points="791.61 84.25 766.28 53.52 704.44 58.05 791.61 84.25"/><polygon class="cls-2" points="730.86 164.59 791.61 84.25 745.66 104.38 730.86 164.59"/><polygon class="cls-2" points="840.35 172.39 791.61 84.25 787.66 139.71 840.35 172.39"/><rect class="cls-21" x="923.62" y="378.89" width="102.08" height="35.88" transform="translate(-161.96 -246.45) rotate(4.08)"/><rect class="cls-22" x="971.57" y="361.72" width="3.92" height="102.08" transform="translate(300.01 1176.32) rotate(-85.93)"/><rect class="cls-22" x="973.91" y="328.84" width="3.92" height="102.08" transform="matrix(0.07, -1, 1, 0.07, 334.98, 1148.11)"/><path class="cls-2" d="M1026,384.26l-100.3-7.15a4.61,4.61,0,0,1-4.27-4.92h0a4.62,4.62,0,0,1,4.93-4.28l100.3,7.15a4.61,4.61,0,0,1,4.27,4.93h0A4.62,4.62,0,0,1,1026,384.26Z" transform="translate(-192.63 -178.19)"/><path class="cls-21" d="M1025.62,426.75l-107-7.62a1.24,1.24,0,0,1-1.15-1.33l.48-6.72a1.24,1.24,0,0,1,1.32-1.15l107,7.62a1.24,1.24,0,0,1,1.15,1.33l-.48,6.72A1.24,1.24,0,0,1,1025.62,426.75Z" transform="translate(-192.63 -178.19)"/><path class="cls-6" d="M993,406.62l-38.72-2.76a8.73,8.73,0,0,1-8.09-9.33h0a8.73,8.73,0,0,1,9.34-8.09l38.72,2.75a8.75,8.75,0,0,1,8.09,9.34h0A8.74,8.74,0,0,1,993,406.62Z" transform="translate(-192.63 -178.19)"/><path class="cls-23" d="M954.49,401a5.83,5.83,0,0,1-5.3-6.94,6,6,0,0,1,6.38-4.66l38.22,2.72a6,6,0,0,1,5.65,5.52,5.82,5.82,0,0,1-6.23,6.11Z" transform="translate(-192.63 -178.19)"/><path class="cls-6" d="M987.41,369.83l-21.54-1.53.14-2c.58-8.12,1.49-25,14.28-48.4h0c9.72,26.77,7.84,41.82,7.26,49.94Z" transform="translate(-192.63 -178.19)"/></g></g></svg>